<svg version="1.1" id="Layer_1" xmlns="http://www.w3.org/2000/svg" xmlns:xlink="http://www.w3.org/1999/xlink" x="0px" y="0px"
	 width="100%" viewBox="0 0 531 109" enable-background="new 0 0 531 109" xml:space="preserve">
<path fill="#000000" opacity="1.000000" stroke="none" 
	d="
M385.000000,110.000000 
	C256.716583,110.000000 128.933197,110.000000 1.074896,110.000000 
	C1.074896,73.730919 1.074896,37.461643 1.074896,1.096183 
	C177.999969,1.096183 354.999969,1.096183 531.971313,1.096183 
	C531.971313,37.400036 531.971313,73.700035 531.971313,110.000000 
	C483.128387,110.000000 434.314178,110.000000 385.000000,110.000000 
M304.700836,72.986755 
	C309.661865,72.643066 314.707581,72.757126 319.565948,71.858444 
	C329.084198,70.097801 335.701782,61.802029 335.780701,52.351322 
	C335.862518,42.554245 329.438141,33.767727 320.010162,31.953705 
	C314.852753,30.961380 309.438141,31.321238 304.141663,31.032114 
	C299.604919,30.784460 297.937897,33.057449 297.989624,37.401356 
	C298.106567,47.214828 298.097229,57.031502 297.987396,66.845177 
	C297.941650,70.935287 299.416840,73.227379 304.700836,72.986755 
M222.164825,68.780952 
	C229.755783,62.911732 231.979401,55.100002 229.596817,46.136673 
	C227.389450,37.832458 221.710922,32.586979 213.121078,31.466774 
	C207.881439,30.783470 202.467636,30.860367 197.199310,31.337894 
	C195.702042,31.473610 193.304855,34.177681 193.254608,35.765141 
	C192.912582,46.570980 192.918182,57.398872 193.281021,68.203880 
	C193.334518,69.796867 195.778992,72.538376 197.274063,72.650116 
	C205.546219,73.268402 213.954605,73.809525 222.164825,68.780952 
M110.018623,73.170883 
	C109.393959,75.984718 110.257874,78.010170 113.372108,77.826385 
	C117.191933,77.600983 122.494934,80.047073 123.974579,74.244606 
	C127.668602,59.758305 130.940521,45.162376 134.175827,30.564781 
	C134.442322,29.362429 133.532761,27.093937 132.512329,26.546871 
	C127.195847,23.696648 121.083679,26.659595 119.629341,32.645748 
	C116.412666,45.885799 113.302071,59.151623 110.018623,73.170883 
M88.822456,60.303593 
	C85.987732,64.606300 83.000061,68.820854 80.431633,73.277039 
	C79.830063,74.320747 80.139008,77.086296 80.899185,77.514328 
	C84.539452,79.564056 91.160622,77.561348 93.663315,73.905151 
	C97.697052,68.012238 101.483322,61.946976 105.611435,56.122707 
	C108.017509,52.728027 107.760223,49.841328 105.401604,46.592457 
	C101.595604,41.349911 98.039055,35.926666 94.356270,30.594154 
	C90.871246,25.547989 84.981438,24.349348 78.727791,27.855745 
	C82.182869,33.114357 85.595787,38.360989 89.061958,43.572197 
	C94.427658,51.639248 94.443069,51.628994 88.822456,60.303593 
M159.992157,70.502602 
	C163.279266,65.508171 166.473190,60.448803 169.890320,55.544960 
	C171.777084,52.837334 171.771774,50.463036 169.887558,47.800877 
	C166.146698,42.515484 162.190567,37.336391 158.974701,31.739174 
	C156.102158,26.739475 152.083084,25.518326 146.880219,26.027952 
	C142.727219,26.434742 142.164352,27.428211 144.461807,30.954502 
	C147.905594,36.240223 151.285461,41.576271 154.954269,46.703625 
	C157.401886,50.124283 157.642136,53.016708 155.068680,56.585575 
	C151.189789,61.964760 147.809601,67.702553 144.190491,73.270401 
	C142.150421,76.408958 143.166626,77.573967 146.698410,78.016174 
	C152.764084,78.775635 157.037399,76.666359 159.992157,70.502602 
M438.544983,44.283821 
	C436.609436,44.134056 434.614929,44.232021 432.749329,43.788261 
	C427.056885,42.434261 421.524170,44.166672 418.093170,48.618454 
	C414.464233,53.327065 414.079773,60.665543 417.181183,66.026855 
	C420.266418,71.360245 424.789948,73.505775 430.928192,72.861557 
	C433.641937,72.576729 436.413940,72.616783 439.143921,72.776009 
	C442.312683,72.960831 443.870300,71.559830 443.895691,68.495407 
	C443.950592,61.863129 443.942139,55.229973 443.907562,48.597450 
	C443.891785,45.572205 442.440369,43.941559 438.544983,44.283821 
M245.904221,72.882927 
	C247.398193,72.871040 248.907562,72.993317 250.383469,72.823952 
	C256.629791,72.107170 261.497162,67.317719 262.692047,60.827438 
	C263.825043,54.673416 260.638489,47.918125 255.368866,45.242943 
	C249.732056,42.381340 244.118668,42.173264 238.879211,45.949245 
	C233.577118,49.770370 232.224426,55.327972 233.291199,61.471840 
	C234.427917,68.018517 239.010132,71.245216 245.904221,72.882927 
M274.000031,60.635910 
	C274.007690,59.805584 274.032928,58.974983 274.019958,58.144978 
	C273.960144,54.309792 274.886841,50.677975 279.358307,50.637165 
	C284.121979,50.593678 285.033234,54.338326 284.997650,58.376106 
	C284.966919,61.862114 284.662689,65.426140 285.299011,68.801140 
	C285.585327,70.319733 287.867828,71.461975 289.244598,72.774971 
	C290.458191,71.465866 292.614868,70.225815 292.716644,68.835327 
	C293.091003,63.722706 293.194641,58.514542 292.629883,53.427841 
	C291.906982,46.916103 285.610138,42.446465 279.476227,43.302513 
	C276.559631,43.709549 273.512451,43.526093 270.712494,44.294945 
	C269.011627,44.761990 266.446228,46.462891 266.369476,47.736126 
	C265.940735,54.848377 265.963165,62.008820 266.321716,69.128105 
	C266.385956,70.403320 268.758850,72.525818 270.039429,72.506546 
	C271.332245,72.487091 273.289795,70.486389 273.705933,69.002968 
	C274.356720,66.683289 273.954559,64.068253 274.000031,60.635910 
M398.993347,43.435215 
	C397.444946,44.693092 395.896515,45.950966 394.348083,47.208847 
	C395.598602,48.521095 397.014221,49.715717 398.055450,51.177090 
	C399.204987,52.790459 400.629028,54.577595 400.839630,56.414452 
	C401.292572,60.364838 400.751923,64.430931 401.228394,68.375923 
	C401.413696,69.909943 403.245667,71.245064 404.327515,72.670792 
	C405.528961,71.196709 407.486298,69.854729 407.771881,68.220558 
	C408.337646,64.983459 408.025299,61.584576 407.992188,58.253395 
	C407.957703,54.783768 408.070221,51.807728 412.471344,50.553066 
	C415.577423,49.667606 415.736023,45.483448 412.738678,44.594952 
	C408.509064,43.341190 408.179840,40.626968 407.797577,37.079201 
	C407.617004,35.403454 405.737427,33.910774 404.627625,32.335136 
	C403.429657,33.993118 401.976440,35.528938 401.107574,37.344425 
	C400.285706,39.061729 400.077332,41.072639 398.993347,43.435215 
M456.873077,34.020905 
	C456.552246,31.150312 454.736755,29.434526 452.179840,30.498640 
	C450.718262,31.106884 449.226990,33.631378 449.182007,35.331066 
	C448.904541,45.803123 449.012238,56.286064 449.045227,66.765221 
	C449.054413,69.692276 449.203888,72.812057 453.281403,72.706436 
	C457.163147,72.605888 456.948395,69.488495 456.957703,66.841339 
	C456.995117,56.195965 456.951660,45.550297 456.873077,34.020905 
M391.505402,46.378319 
	C389.817017,45.743706 387.934265,44.351391 386.502930,44.718628 
	C385.394592,45.002987 384.232147,47.461586 384.165192,49.000290 
	C383.898438,55.127373 384.016144,61.273010 384.065491,67.411186 
	C384.086517,70.028122 384.465790,72.619514 387.909637,72.680634 
	C391.333405,72.741394 391.917572,70.250061 391.914734,67.578903 
	C391.907532,60.780544 391.801971,53.982288 391.505402,46.378319 
M346.997559,59.489319 
	C346.958221,55.670372 347.196106,51.817242 346.731659,48.050716 
	C346.565369,46.702030 344.702667,45.562527 343.614227,44.327545 
	C342.461090,45.488609 340.363586,46.607986 340.310181,47.817593 
	C339.995728,54.941738 339.997162,62.094048 340.314941,69.218010 
	C340.368439,70.417229 342.481659,71.524574 343.643188,72.674377 
	C344.722839,71.431351 346.471497,70.316666 346.739838,68.917992 
	C347.263458,66.188576 346.959076,63.300323 346.997559,59.489319 
M342.137787,39.168743 
	C343.871094,38.291130 345.820465,37.656895 347.225464,36.409496 
	C347.747070,35.946381 347.432007,33.499382 346.719116,32.925911 
	C345.585541,32.014004 343.693848,31.336166 342.308472,31.586569 
	C338.978638,32.188431 338.727142,35.242199 342.137787,39.168743 
M391.476868,36.908207 
	C390.531189,35.114357 389.585510,33.320507 388.639832,31.526659 
	C387.318390,32.259922 385.200745,32.742413 384.871399,33.788120 
	C384.431824,35.183796 385.050262,38.206345 385.802673,38.415749 
	C387.392090,38.858070 389.363495,37.927807 391.476868,36.908207 
z"/>
<path fill="#1F1F1F" opacity="1.000000" stroke="none" 
	d="
M304.240967,72.978668 
	C299.416840,73.227379 297.941650,70.935287 297.987396,66.845177 
	C298.097229,57.031502 298.106567,47.214828 297.989624,37.401356 
	C297.937897,33.057449 299.604919,30.784460 304.141663,31.032114 
	C309.438141,31.321238 314.852753,30.961380 320.010162,31.953705 
	C329.438141,33.767727 335.862518,42.554245 335.780701,52.351322 
	C335.701782,61.802029 329.084198,70.097801 319.565948,71.858444 
	C314.707581,72.757126 309.661865,72.643066 304.240967,72.978668 
M305.997070,50.515820 
	C306.027618,53.847271 305.771088,57.217834 306.217377,60.492634 
	C306.421387,61.989807 307.714081,64.055519 309.019989,64.565590 
	C315.869965,67.241158 324.644226,63.172874 326.804871,56.665051 
	C329.425415,48.772011 325.647705,41.298515 317.802399,38.855354 
	C308.705261,36.022350 306.025787,37.992058 305.997955,47.533451 
	C305.996002,48.199867 305.997314,48.866295 305.997070,50.515820 
z"/>
<path fill="#1F1F1F" opacity="1.000000" stroke="none" 
	d="
M221.840103,68.961937 
	C213.954605,73.809525 205.546219,73.268402 197.274063,72.650116 
	C195.778992,72.538376 193.334518,69.796867 193.281021,68.203880 
	C192.918182,57.398872 192.912582,46.570980 193.254608,35.765141 
	C193.304855,34.177681 195.702042,31.473610 197.199310,31.337894 
	C202.467636,30.860367 207.881439,30.783470 213.121078,31.466774 
	C221.710922,32.586979 227.389450,37.832458 229.596817,46.136673 
	C231.979401,55.100002 229.755783,62.911732 221.840103,68.961937 
M202.562988,63.972786 
	C204.317230,64.308380 206.061295,64.855797 207.827576,64.940483 
	C213.487366,65.211838 218.475464,63.731327 221.139709,58.233627 
	C223.561417,53.236404 223.223038,48.147751 219.876587,43.668724 
	C216.110443,38.627922 210.583298,37.565132 204.736206,38.289669 
	C203.474792,38.445980 201.420380,40.183388 201.413284,41.204185 
	C201.361954,48.592106 201.742569,55.983028 202.562988,63.972786 
z"/>
<path fill="#1F1F1F" opacity="1.000000" stroke="none" 
	d="
M110.083405,72.788910 
	C113.302071,59.151623 116.412666,45.885799 119.629341,32.645748 
	C121.083679,26.659595 127.195847,23.696648 132.512329,26.546871 
	C133.532761,27.093937 134.442322,29.362429 134.175827,30.564781 
	C130.940521,45.162376 127.668602,59.758305 123.974579,74.244606 
	C122.494934,80.047073 117.191933,77.600983 113.372108,77.826385 
	C110.257874,78.010170 109.393959,75.984718 110.083405,72.788910 
z"/>
<path fill="#1F1F1F" opacity="1.000000" stroke="none" 
	d="
M89.007919,59.993324 
	C94.443069,51.628994 94.427658,51.639248 89.061958,43.572197 
	C85.595787,38.360989 82.182869,33.114357 78.727791,27.855745 
	C84.981438,24.349348 90.871246,25.547989 94.356270,30.594154 
	C98.039055,35.926666 101.595604,41.349911 105.401604,46.592457 
	C107.760223,49.841328 108.017509,52.728027 105.611435,56.122707 
	C101.483322,61.946976 97.697052,68.012238 93.663315,73.905151 
	C91.160622,77.561348 84.539452,79.564056 80.899185,77.514328 
	C80.139008,77.086296 79.830063,74.320747 80.431633,73.277039 
	C83.000061,68.820854 85.987732,64.606300 89.007919,59.993324 
z"/>
<path fill="#1F1F1F" opacity="1.000000" stroke="none" 
	d="
M159.783813,70.798073 
	C157.037399,76.666359 152.764084,78.775635 146.698410,78.016174 
	C143.166626,77.573967 142.150421,76.408958 144.190491,73.270401 
	C147.809601,67.702553 151.189789,61.964760 155.068680,56.585575 
	C157.642136,53.016708 157.401886,50.124283 154.954269,46.703625 
	C151.285461,41.576271 147.905594,36.240223 144.461807,30.954502 
	C142.164352,27.428211 142.727219,26.434742 146.880219,26.027952 
	C152.083084,25.518326 156.102158,26.739475 158.974701,31.739174 
	C162.190567,37.336391 166.146698,42.515484 169.887558,47.800877 
	C171.771774,50.463036 171.777084,52.837334 169.890320,55.544960 
	C166.473190,60.448803 163.279266,65.508171 159.783813,70.798073 
z"/>
<path fill="#1F1F1F" opacity="1.000000" stroke="none" 
	d="
M438.901306,44.246426 
	C442.440369,43.941559 443.891785,45.572205 443.907562,48.597450 
	C443.942139,55.229973 443.950592,61.863129 443.895691,68.495407 
	C443.870300,71.559830 442.312683,72.960831 439.143921,72.776009 
	C436.413940,72.616783 433.641937,72.576729 430.928192,72.861557 
	C424.789948,73.505775 420.266418,71.360245 417.181183,66.026855 
	C414.079773,60.665543 414.464233,53.327065 418.093170,48.618454 
	C421.524170,44.166672 427.056885,42.434261 432.749329,43.788261 
	C434.614929,44.232021 436.609436,44.134056 438.901306,44.246426 
M436.867218,59.236012 
	C436.649170,53.623852 433.949005,50.220608 429.819122,50.352753 
	C425.701538,50.484505 422.600922,54.493752 423.156036,59.097927 
	C423.604004,62.813446 425.742371,65.268730 429.428741,65.702293 
	C433.471039,66.177704 436.005280,64.096519 436.867218,59.236012 
z"/>
<path fill="#1F1F1F" opacity="1.000000" stroke="none" 
	d="
M245.489944,72.842033 
	C239.010132,71.245216 234.427917,68.018517 233.291199,61.471840 
	C232.224426,55.327972 233.577118,49.770370 238.879211,45.949245 
	C244.118668,42.173264 249.732056,42.381340 255.368866,45.242943 
	C260.638489,47.918125 263.825043,54.673416 262.692047,60.827438 
	C261.497162,67.317719 256.629791,72.107170 250.383469,72.823952 
	C248.907562,72.993317 247.398193,72.871040 245.489944,72.842033 
M254.585327,60.733597 
	C255.281708,53.487549 251.609772,48.953224 246.285980,51.145535 
	C243.829285,52.157188 240.914322,55.312984 240.735062,57.687481 
	C240.553665,60.089794 242.923431,63.691284 245.199783,65.043571 
	C248.882477,67.231308 252.117874,64.885956 254.585327,60.733597 
z"/>
<path fill="#1F1F1F" opacity="1.000000" stroke="none" 
	d="
M273.999268,61.107124 
	C273.954559,64.068253 274.356720,66.683289 273.705933,69.002968 
	C273.289795,70.486389 271.332245,72.487091 270.039429,72.506546 
	C268.758850,72.525818 266.385956,70.403320 266.321716,69.128105 
	C265.963165,62.008820 265.940735,54.848377 266.369476,47.736126 
	C266.446228,46.462891 269.011627,44.761990 270.712494,44.294945 
	C273.512451,43.526093 276.559631,43.709549 279.476227,43.302513 
	C285.610138,42.446465 291.906982,46.916103 292.629883,53.427841 
	C293.194641,58.514542 293.091003,63.722706 292.716644,68.835327 
	C292.614868,70.225815 290.458191,71.465866 289.244598,72.774979 
	C287.867828,71.461975 285.585327,70.319733 285.299011,68.801140 
	C284.662689,65.426140 284.966919,61.862114 284.997650,58.376106 
	C285.033234,54.338326 284.121979,50.593678 279.358307,50.637165 
	C274.886841,50.677975 273.960144,54.309792 274.019958,58.144978 
	C274.032928,58.974983 274.007690,59.805584 273.999268,61.107124 
z"/>
<path fill="#1F1F1F" opacity="1.000000" stroke="none" 
	d="
M399.296234,43.194817 
	C400.077332,41.072639 400.285706,39.061729 401.107574,37.344425 
	C401.976440,35.528938 403.429657,33.993118 404.627625,32.335140 
	C405.737427,33.910774 407.617004,35.403454 407.797577,37.079201 
	C408.179840,40.626968 408.509064,43.341190 412.738678,44.594952 
	C415.736023,45.483448 415.577423,49.667606 412.471344,50.553066 
	C408.070221,51.807728 407.957703,54.783768 407.992188,58.253395 
	C408.025299,61.584576 408.337646,64.983459 407.771881,68.220558 
	C407.486298,69.854729 405.528961,71.196709 404.327515,72.670792 
	C403.245667,71.245064 401.413696,69.909943 401.228394,68.375923 
	C400.751923,64.430931 401.292572,60.364838 400.839630,56.414452 
	C400.629028,54.577595 399.204987,52.790459 398.055450,51.177090 
	C397.014221,49.715717 395.598602,48.521095 394.348083,47.208847 
	C395.896515,45.950966 397.444946,44.693092 399.296234,43.194817 
z"/>
<path fill="#1F1F1F" opacity="1.000000" stroke="none" 
	d="
M456.905579,34.462822 
	C456.951660,45.550297 456.995117,56.195965 456.957703,66.841339 
	C456.948395,69.488495 457.163147,72.605888 453.281403,72.706436 
	C449.203888,72.812057 449.054413,69.692276 449.045227,66.765221 
	C449.012238,56.286064 448.904541,45.803123 449.182007,35.331066 
	C449.226990,33.631378 450.718262,31.106884 452.179840,30.498640 
	C454.736755,29.434526 456.552246,31.150312 456.905579,34.462822 
z"/>
<path fill="#1F1F1F" opacity="1.000000" stroke="none" 
	d="
M391.620605,46.781158 
	C391.801971,53.982288 391.907532,60.780544 391.914734,67.578903 
	C391.917572,70.250061 391.333405,72.741394 387.909637,72.680634 
	C384.465790,72.619514 384.086517,70.028122 384.065491,67.411186 
	C384.016144,61.273010 383.898438,55.127373 384.165192,49.000290 
	C384.232147,47.461586 385.394592,45.002987 386.502930,44.718628 
	C387.934265,44.351391 389.817017,45.743706 391.620605,46.781158 
z"/>
<path fill="#1F1F1F" opacity="1.000000" stroke="none" 
	d="
M346.997559,59.983582 
	C346.959076,63.300323 347.263458,66.188576 346.739838,68.917992 
	C346.471497,70.316666 344.722839,71.431351 343.643188,72.674377 
	C342.481659,71.524574 340.368439,70.417229 340.314941,69.218010 
	C339.997162,62.094048 339.995728,54.941738 340.310181,47.817593 
	C340.363586,46.607986 342.461090,45.488609 343.614227,44.327545 
	C344.702667,45.562527 346.565369,46.702030 346.731659,48.050716 
	C347.196106,51.817242 346.958221,55.670372 346.997559,59.983582 
z"/>
<path fill="#1F1F1F" opacity="1.000000" stroke="none" 
	d="
M341.825928,39.008881 
	C338.727142,35.242199 338.978638,32.188431 342.308472,31.586569 
	C343.693848,31.336166 345.585541,32.014004 346.719116,32.925911 
	C347.432007,33.499382 347.747070,35.946381 347.225464,36.409496 
	C345.820465,37.656895 343.871094,38.291130 341.825928,39.008881 
z"/>
<path fill="#1F1F1F" opacity="1.000000" stroke="none" 
	d="
M391.327515,37.234413 
	C389.363495,37.927807 387.392090,38.858070 385.802673,38.415749 
	C385.050262,38.206345 384.431824,35.183796 384.871399,33.788120 
	C385.200745,32.742413 387.318390,32.259922 388.639832,31.526659 
	C389.585510,33.320507 390.531189,35.114357 391.327515,37.234413 
z"/>
<path fill="#000000" opacity="1.000000" stroke="none" 
	d="
M305.997101,50.024269 
	C305.997314,48.866295 305.996002,48.199867 305.997955,47.533451 
	C306.025787,37.992058 308.705261,36.022350 317.802399,38.855354 
	C325.647705,41.298515 329.425415,48.772011 326.804871,56.665051 
	C324.644226,63.172874 315.869965,67.241158 309.019989,64.565590 
	C307.714081,64.055519 306.421387,61.989807 306.217377,60.492634 
	C305.771088,57.217834 306.027618,53.847271 305.997101,50.024269 
z"/>
<path fill="#000000" opacity="1.000000" stroke="none" 
	d="
M202.274704,63.672894 
	C201.742569,55.983028 201.361954,48.592106 201.413284,41.204185 
	C201.420380,40.183388 203.474792,38.445980 204.736206,38.289669 
	C210.583298,37.565132 216.110443,38.627922 219.876587,43.668724 
	C223.223038,48.147751 223.561417,53.236404 221.139709,58.233627 
	C218.475464,63.731327 213.487366,65.211838 207.827576,64.940483 
	C206.061295,64.855797 204.317230,64.308380 202.274704,63.672894 
z"/>
<path fill="#000000" opacity="1.000000" stroke="none" 
	d="
M436.826172,59.635017 
	C436.005280,64.096519 433.471039,66.177704 429.428741,65.702293 
	C425.742371,65.268730 423.604004,62.813446 423.156036,59.097927 
	C422.600922,54.493752 425.701538,50.484505 429.819122,50.352753 
	C433.949005,50.220608 436.649170,53.623852 436.826172,59.635017 
z"/>
<path fill="#000000" opacity="1.000000" stroke="none" 
	d="
M254.447723,61.097084 
	C252.117874,64.885956 248.882477,67.231308 245.199783,65.043571 
	C242.923431,63.691284 240.553665,60.089794 240.735062,57.687481 
	C240.914322,55.312984 243.829285,52.157188 246.285980,51.145535 
	C251.609772,48.953224 255.281708,53.487549 254.447723,61.097084 
z"/>
</svg>